<svg width="149" height="39" viewBox="0 0 149 39" fill="none" xmlns="http://www.w3.org/2000/svg">
<g clip-path="url(#clip0)">
<rect width="149" height="39" fill="#FFF06B"/>
<path d="M14.0827 30H18.1011V27.6464H18.2829C18.8474 28.871 20.0816 30.2392 22.4544 30.2392C25.8031 30.2392 28.415 27.589 28.415 22.6712C28.415 17.6195 25.6882 15.1127 22.4639 15.1127C20.0051 15.1127 18.8282 16.5766 18.2829 17.7725H18.1585V10.4055H14.0827V30ZM18.0724 22.652C18.0724 20.0305 19.1822 18.3562 21.1627 18.3562C23.1815 18.3562 24.2531 20.1071 24.2531 22.652C24.2531 25.2162 23.1624 26.9958 21.1627 26.9958C19.2014 26.9958 18.0724 25.2736 18.0724 22.652ZM37.7746 30.287C42.2331 30.287 45.0077 27.2349 45.0077 22.7095C45.0077 18.1552 42.2331 15.1127 37.7746 15.1127C33.3161 15.1127 30.5414 18.1552 30.5414 22.7095C30.5414 27.2349 33.3161 30.287 37.7746 30.287ZM37.7937 27.1297C35.7367 27.1297 34.6842 25.2449 34.6842 22.6807C34.6842 20.1166 35.7367 18.2222 37.7937 18.2222C39.8125 18.2222 40.8649 20.1166 40.8649 22.6807C40.8649 25.2449 39.8125 27.1297 37.7937 27.1297ZM47.658 35.511H51.7338V27.6464H51.8582C52.4227 28.871 53.6569 30.2392 56.0297 30.2392C59.3783 30.2392 61.9903 27.589 61.9903 22.6712C61.9903 17.6195 59.2635 15.1127 56.0392 15.1127C53.5803 15.1127 52.4035 16.5766 51.8582 17.7725H51.6764V15.3041H47.658V35.511ZM51.6477 22.652C51.6477 20.0305 52.7575 18.3562 54.738 18.3562C56.7568 18.3562 57.8284 20.1071 57.8284 22.652C57.8284 25.2162 56.7377 26.9958 54.738 26.9958C52.7767 26.9958 51.6477 25.2736 51.6477 22.652ZM76.935 19.4947C76.5714 16.7871 74.39 15.1127 70.6777 15.1127C66.9176 15.1127 64.4396 16.854 64.4492 19.6861C64.4396 21.8866 65.8269 23.3122 68.6972 23.8863L71.2422 24.3934C72.5243 24.6517 73.1079 25.1205 73.127 25.8572C73.1079 26.7279 72.1607 27.3498 70.7351 27.3498C69.2808 27.3498 68.3145 26.7279 68.0658 25.5319L64.0569 25.7424C64.4396 28.5553 66.8315 30.287 70.7256 30.287C74.5335 30.287 77.2603 28.3448 77.2698 25.4458C77.2603 23.3218 75.873 22.0493 73.0218 21.4657L70.362 20.9299C68.9938 20.6333 68.4867 20.1645 68.4963 19.4564C68.4867 18.5762 69.4818 18.0022 70.7447 18.0022C72.1607 18.0022 73.0027 18.7771 73.2036 19.7243L76.935 19.4947ZM83.9122 21.5039C83.9217 19.6095 85.0794 18.4997 86.7442 18.4997C88.3994 18.4997 89.3753 19.5617 89.3657 21.37V30H93.4416V20.6428C93.4511 17.1985 91.4228 15.1127 88.3611 15.1127C86.1319 15.1127 84.6393 16.1652 83.9696 17.8969H83.7974V10.4055H79.8364V30H83.9122V21.5039ZM103.289 30.287C107.748 30.287 110.522 27.2349 110.522 22.7095C110.522 18.1552 107.748 15.1127 103.289 15.1127C98.8305 15.1127 96.0559 18.1552 96.0559 22.7095C96.0559 27.2349 98.8305 30.287 103.289 30.287ZM103.308 27.1297C101.251 27.1297 100.199 25.2449 100.199 22.6807C100.199 20.1166 101.251 18.2222 103.308 18.2222C105.327 18.2222 106.379 20.1166 106.379 22.6807C106.379 25.2449 105.327 27.1297 103.308 27.1297ZM113.172 35.511H117.248V27.6464H117.373C117.937 28.871 119.171 30.2392 121.544 30.2392C124.893 30.2392 127.505 27.589 127.505 22.6712C127.505 17.6195 124.778 15.1127 121.554 15.1127C119.095 15.1127 117.918 16.5766 117.373 17.7725H117.191V15.3041H113.172V35.511ZM117.162 22.652C117.162 20.0305 118.272 18.3562 120.253 18.3562C122.271 18.3562 123.343 20.1071 123.343 22.652C123.343 25.2162 122.252 26.9958 120.253 26.9958C118.291 26.9958 117.162 25.2736 117.162 22.652ZM132.604 30.2488C133.829 30.2488 134.891 29.225 134.901 27.9525C134.891 26.6992 133.829 25.6754 132.604 25.6754C131.341 25.6754 130.299 26.6992 130.308 27.9525C130.299 29.225 131.341 30.2488 132.604 30.2488Z" fill="black"/>
</g>
<defs>
<clipPath id="clip0">
<rect width="149" height="39" fill="white"/>
</clipPath>
</defs>
</svg>
