<svg width="335" height="107" viewBox="0 0 335 107" fill="none" xmlns="http://www.w3.org/2000/svg">
<rect y="9.29163" width="334.5" height="87.1094" fill="#FFF06B"/>
<path d="M58.0165 75.5013C55.7359 75.5013 53.7306 74.9803 52.0005 73.9384C50.2901 72.8964 48.9925 71.4415 48.1078 69.5738H47.9309V75H39.4377V32.4457H48.0488V48.8717H48.2258C49.1105 46.9844 50.3982 45.5197 52.089 44.4777C53.7798 43.416 55.7458 42.8852 57.987 42.8852C61.978 42.8852 65.1138 44.3302 67.3944 47.2203C69.6946 50.1103 70.8447 54.1013 70.8447 59.1933C70.8447 64.2656 69.7044 68.2566 67.4239 71.1663C65.1433 74.0563 62.0075 75.5013 58.0165 75.5013ZM55.038 49.7859C52.954 49.7859 51.2633 50.651 49.9657 52.3811C48.6681 54.1111 48.0193 56.3819 48.0193 59.1933C48.0193 62.044 48.6583 64.3246 49.9362 66.035C51.2338 67.7258 52.9344 68.5711 55.038 68.5711C57.2006 68.5711 58.9012 67.7356 60.1398 66.0645C61.398 64.3737 62.0272 62.0833 62.0272 59.1933C62.0272 56.3229 61.398 54.0423 60.1398 52.3516C58.8816 50.6411 57.181 49.7859 55.038 49.7859ZM101.279 71.3137C98.4672 74.2234 94.6531 75.6783 89.8364 75.6783C85.0197 75.6783 81.2056 74.2136 78.3942 71.2842C75.5828 68.3549 74.1771 64.3147 74.1771 59.1638C74.1771 54.0718 75.5926 50.0612 78.4237 47.1318C81.2744 44.1828 85.0786 42.7083 89.8364 42.7083C94.6138 42.7083 98.418 44.1828 101.249 47.1318C104.08 50.0612 105.496 54.0718 105.496 59.1638C105.496 64.3344 104.09 68.3844 101.279 71.3137ZM89.8364 69.102C91.9597 69.102 93.6406 68.2369 94.8792 66.5068C96.1178 64.7767 96.7371 62.3389 96.7371 59.1933C96.7371 56.087 96.1178 53.659 94.8792 51.9092C93.6406 50.1595 91.9597 49.2846 89.8364 49.2846C87.7131 49.2846 86.0223 50.1595 84.7641 51.9092C83.5255 53.659 82.9062 56.087 82.9062 59.1933C82.9062 62.3389 83.5255 64.7767 84.7641 66.5068C86.0027 68.2369 87.6934 69.102 89.8364 69.102ZM128.41 42.8852C132.42 42.8852 135.576 44.3302 137.876 47.2203C140.196 50.1103 141.356 54.1013 141.356 59.1933C141.356 64.2656 140.215 68.2566 137.935 71.1663C135.654 74.0563 132.528 75.5013 128.557 75.5013C126.296 75.5013 124.301 74.9902 122.57 73.9678C120.86 72.9259 119.582 71.5005 118.737 69.6918H118.56V85.3216H109.949V43.3866H118.442V48.9012H118.619C119.484 47.0138 120.762 45.5393 122.452 44.4777C124.163 43.416 126.149 42.8852 128.41 42.8852ZM125.519 68.5711C127.662 68.5711 129.363 67.7258 130.621 66.035C131.899 64.3442 132.538 62.0637 132.538 59.1933C132.538 56.3229 131.899 54.0423 130.621 52.3516C129.363 50.6411 127.662 49.7859 125.519 49.7859C123.416 49.7859 121.725 50.651 120.447 52.3811C119.169 54.0915 118.53 56.3622 118.53 59.1933C118.53 62.044 119.159 64.3246 120.418 66.035C121.696 67.7258 123.396 68.5711 125.519 68.5711ZM145.278 52.676C145.278 49.668 146.487 47.2596 148.905 45.4509C151.323 43.6225 154.557 42.7083 158.607 42.7083C162.559 42.7083 165.734 43.6323 168.133 45.4804C170.531 47.3284 171.76 49.7859 171.819 52.8529H163.886C163.788 51.575 163.257 50.5723 162.294 49.8449C161.35 49.1175 160.082 48.7538 158.489 48.7538C156.995 48.7538 155.796 49.0683 154.892 49.6974C154.007 50.3069 153.565 51.1228 153.565 52.1451C153.565 53.6786 154.941 54.7698 157.693 55.4185L163.739 56.7161C166.904 57.4239 169.175 58.456 170.551 59.8126C171.947 61.1495 172.645 62.9975 172.645 65.3567C172.645 68.463 171.347 70.9598 168.752 72.8472C166.157 74.7346 162.766 75.6783 158.578 75.6783C154.41 75.6783 151.078 74.7542 148.581 72.9062C146.084 71.0581 144.718 68.5711 144.482 65.4452H152.886C153.103 66.7821 153.712 67.8142 154.715 68.5417C155.737 69.2691 157.103 69.6328 158.814 69.6328C160.446 69.6328 161.724 69.3379 162.648 68.7481C163.591 68.1386 164.063 67.3129 164.063 66.2709C164.063 65.4649 163.768 64.8259 163.178 64.3541C162.589 63.8626 161.586 63.4497 160.17 63.1155L154.331 61.8179C148.296 60.4417 145.278 57.3944 145.278 52.676ZM177.157 75V32.4457H185.62V49.0192H185.797C186.643 47.0138 187.911 45.4804 189.602 44.4187C191.312 43.3374 193.357 42.7968 195.736 42.7968C199.215 42.7968 201.919 43.8584 203.845 45.9817C205.792 48.0853 206.765 50.9754 206.765 54.6518V75H198.154V56.4802C198.154 54.4159 197.643 52.8136 196.62 51.6733C195.618 50.5133 194.153 49.9334 192.226 49.9334C190.221 49.9334 188.638 50.5822 187.478 51.8797C186.338 53.1576 185.768 54.8484 185.768 56.952V75H177.157ZM238.231 71.3137C235.419 74.2234 231.605 75.6783 226.789 75.6783C221.972 75.6783 218.158 74.2136 215.346 71.2842C212.535 68.3549 211.129 64.3147 211.129 59.1638C211.129 54.0718 212.545 50.0612 215.376 47.1318C218.227 44.1828 222.031 42.7083 226.789 42.7083C231.566 42.7083 235.37 44.1828 238.201 47.1318C241.032 50.0612 242.448 54.0718 242.448 59.1638C242.448 64.3344 241.042 68.3844 238.231 71.3137ZM226.789 69.102C228.912 69.102 230.593 68.2369 231.831 66.5068C233.07 64.7767 233.689 62.3389 233.689 59.1933C233.689 56.087 233.07 53.659 231.831 51.9092C230.593 50.1595 228.912 49.2846 226.789 49.2846C224.665 49.2846 222.975 50.1595 221.716 51.9092C220.478 53.659 219.858 56.087 219.858 59.1933C219.858 62.3389 220.478 64.7767 221.716 66.5068C222.955 68.2369 224.646 69.102 226.789 69.102ZM265.362 42.8852C269.372 42.8852 272.528 44.3302 274.828 47.2203C277.148 50.1103 278.308 54.1013 278.308 59.1933C278.308 64.2656 277.168 68.2566 274.887 71.1663C272.607 74.0563 269.481 75.5013 265.509 75.5013C263.248 75.5013 261.253 74.9902 259.523 73.9678C257.812 72.9259 256.534 71.5005 255.689 69.6918H255.512V85.3216H246.901V43.3866H255.394V48.9012H255.571C256.436 47.0138 257.714 45.5393 259.405 44.4777C261.115 43.416 263.101 42.8852 265.362 42.8852ZM262.472 68.5711C264.615 68.5711 266.315 67.7258 267.574 66.035C268.851 64.3442 269.49 62.0637 269.49 59.1933C269.49 56.3229 268.851 54.0423 267.574 52.3516C266.315 50.6411 264.615 49.7859 262.472 49.7859C260.368 49.7859 258.677 50.651 257.399 52.3811C256.122 54.0915 255.483 56.3622 255.483 59.1933C255.483 62.044 256.112 64.3246 257.37 66.035C258.648 67.7258 260.348 68.5711 262.472 68.5711ZM290.841 73.9678C289.917 74.8919 288.797 75.3539 287.479 75.3539C286.162 75.3539 285.042 74.8919 284.117 73.9678C283.193 73.0438 282.731 71.9232 282.731 70.606C282.731 69.2887 283.193 68.1681 284.117 67.2441C285.042 66.3201 286.162 65.8581 287.479 65.8581C288.797 65.8581 289.917 66.3201 290.841 67.2441C291.765 68.1681 292.227 69.2887 292.227 70.606C292.227 71.9232 291.765 73.0438 290.841 73.9678Z" fill="black"/>
</svg>
