<svg width="288" height="75" viewBox="0 0 288 75" fill="none" xmlns="http://www.w3.org/2000/svg">
<rect width="288" height="75" fill="#FFF06B"/>
<path d="M50.8926 55.4316C48.929 55.4316 47.2025 54.9831 45.7129 54.0859C44.2402 53.1888 43.123 51.9362 42.3613 50.3281H42.209V55H34.8965V18.3613H42.3105V32.5039H42.4629C43.2246 30.8789 44.3333 29.6178 45.7891 28.7207C47.2448 27.8066 48.9375 27.3496 50.8672 27.3496C54.3034 27.3496 57.0033 28.5938 58.9668 31.082C60.9473 33.5703 61.9375 37.0065 61.9375 41.3906C61.9375 45.7578 60.9557 49.194 58.9922 51.6992C57.0286 54.1875 54.3288 55.4316 50.8926 55.4316ZM48.3281 33.291C46.5339 33.291 45.0781 34.0358 43.9609 35.5254C42.8438 37.015 42.2852 38.9701 42.2852 41.3906C42.2852 43.8451 42.8353 45.8086 43.9355 47.2812C45.0527 48.737 46.5169 49.4648 48.3281 49.4648C50.1901 49.4648 51.6543 48.7454 52.7207 47.3066C53.804 45.8509 54.3457 43.8789 54.3457 41.3906C54.3457 38.9193 53.804 36.9557 52.7207 35.5C51.6374 34.0273 50.1732 33.291 48.3281 33.291ZM88.1406 51.8262C85.7201 54.3314 82.4362 55.584 78.2891 55.584C74.1419 55.584 70.8581 54.3229 68.4375 51.8008C66.0169 49.2786 64.8066 45.8001 64.8066 41.3652C64.8066 36.9811 66.0254 33.528 68.4629 31.0059C70.9173 28.4668 74.1927 27.1973 78.2891 27.1973C82.4023 27.1973 85.6777 28.4668 88.1152 31.0059C90.5527 33.528 91.7715 36.9811 91.7715 41.3652C91.7715 45.8171 90.5612 49.304 88.1406 51.8262ZM78.2891 49.9219C80.1172 49.9219 81.5645 49.1771 82.6309 47.6875C83.6973 46.1979 84.2305 44.099 84.2305 41.3906C84.2305 38.7161 83.6973 36.6257 82.6309 35.1191C81.5645 33.6126 80.1172 32.8594 78.2891 32.8594C76.4609 32.8594 75.0052 33.6126 73.9219 35.1191C72.8555 36.6257 72.3223 38.7161 72.3223 41.3906C72.3223 44.099 72.8555 46.1979 73.9219 47.6875C74.9883 49.1771 76.444 49.9219 78.2891 49.9219ZM111.5 27.3496C114.953 27.3496 117.67 28.5938 119.65 31.082C121.648 33.5703 122.646 37.0065 122.646 41.3906C122.646 45.7578 121.665 49.194 119.701 51.6992C117.738 54.1875 115.046 55.4316 111.627 55.4316C109.68 55.4316 107.962 54.9915 106.473 54.1113C105 53.2142 103.9 51.987 103.172 50.4297H103.02V63.8867H95.6055V27.7812H102.918V32.5293H103.07C103.815 30.9043 104.915 29.6348 106.371 28.7207C107.844 27.8066 109.553 27.3496 111.5 27.3496ZM109.012 49.4648C110.857 49.4648 112.321 48.737 113.404 47.2812C114.505 45.8255 115.055 43.862 115.055 41.3906C115.055 38.9193 114.505 36.9557 113.404 35.5C112.321 34.0273 110.857 33.291 109.012 33.291C107.201 33.291 105.745 34.0358 104.645 35.5254C103.544 36.998 102.994 38.9531 102.994 41.3906C102.994 43.8451 103.536 45.8086 104.619 47.2812C105.719 48.737 107.184 49.4648 109.012 49.4648ZM126.023 35.7793C126.023 33.1895 127.064 31.1159 129.146 29.5586C131.229 27.9844 134.013 27.1973 137.5 27.1973C140.902 27.1973 143.636 27.9928 145.701 29.584C147.766 31.1751 148.824 33.291 148.875 35.9316H142.045C141.96 34.8314 141.503 33.9681 140.674 33.3418C139.861 32.7155 138.77 32.4023 137.398 32.4023C136.112 32.4023 135.079 32.6732 134.301 33.2148C133.539 33.7396 133.158 34.4421 133.158 35.3223C133.158 36.6426 134.343 37.582 136.713 38.1406L141.918 39.2578C144.643 39.8672 146.598 40.7559 147.783 41.9238C148.985 43.0749 149.586 44.666 149.586 46.6973C149.586 49.3717 148.469 51.5215 146.234 53.1465C144 54.7715 141.08 55.584 137.475 55.584C133.886 55.584 131.017 54.7884 128.867 53.1973C126.717 51.6061 125.541 49.4648 125.338 46.7734H132.574C132.76 47.9245 133.285 48.8132 134.148 49.4395C135.029 50.0658 136.205 50.3789 137.678 50.3789C139.083 50.3789 140.183 50.125 140.979 49.6172C141.791 49.0924 142.197 48.3815 142.197 47.4844C142.197 46.7904 141.943 46.2402 141.436 45.834C140.928 45.4108 140.064 45.0553 138.846 44.7676L133.818 43.6504C128.622 42.4655 126.023 39.8418 126.023 35.7793ZM153.471 55V18.3613H160.758V32.6309H160.91C161.638 30.9043 162.73 29.584 164.186 28.6699C165.658 27.7389 167.419 27.2734 169.467 27.2734C172.463 27.2734 174.79 28.1875 176.449 30.0156C178.125 31.8268 178.963 34.3151 178.963 37.4805V55H171.549V39.0547C171.549 37.2773 171.109 35.8978 170.229 34.916C169.365 33.9173 168.104 33.418 166.445 33.418C164.719 33.418 163.356 33.9766 162.357 35.0938C161.376 36.194 160.885 37.6497 160.885 39.4609V55H153.471ZM206.055 51.8262C203.634 54.3314 200.35 55.584 196.203 55.584C192.056 55.584 188.772 54.3229 186.352 51.8008C183.931 49.2786 182.721 45.8001 182.721 41.3652C182.721 36.9811 183.939 33.528 186.377 31.0059C188.831 28.4668 192.107 27.1973 196.203 27.1973C200.316 27.1973 203.592 28.4668 206.029 31.0059C208.467 33.528 209.686 36.9811 209.686 41.3652C209.686 45.8171 208.475 49.304 206.055 51.8262ZM196.203 49.9219C198.031 49.9219 199.479 49.1771 200.545 47.6875C201.611 46.1979 202.145 44.099 202.145 41.3906C202.145 38.7161 201.611 36.6257 200.545 35.1191C199.479 33.6126 198.031 32.8594 196.203 32.8594C194.375 32.8594 192.919 33.6126 191.836 35.1191C190.77 36.6257 190.236 38.7161 190.236 41.3906C190.236 44.099 190.77 46.1979 191.836 47.6875C192.902 49.1771 194.358 49.9219 196.203 49.9219ZM229.414 27.3496C232.867 27.3496 235.584 28.5938 237.564 31.082C239.562 33.5703 240.561 37.0065 240.561 41.3906C240.561 45.7578 239.579 49.194 237.615 51.6992C235.652 54.1875 232.96 55.4316 229.541 55.4316C227.594 55.4316 225.876 54.9915 224.387 54.1113C222.914 53.2142 221.814 51.987 221.086 50.4297H220.934V63.8867H213.52V27.7812H220.832V32.5293H220.984C221.729 30.9043 222.829 29.6348 224.285 28.7207C225.758 27.8066 227.467 27.3496 229.414 27.3496ZM226.926 49.4648C228.771 49.4648 230.235 48.737 231.318 47.2812C232.419 45.8255 232.969 43.862 232.969 41.3906C232.969 38.9193 232.419 36.9557 231.318 35.5C230.235 34.0273 228.771 33.291 226.926 33.291C225.115 33.291 223.659 34.0358 222.559 35.5254C221.458 36.998 220.908 38.9531 220.908 41.3906C220.908 43.8451 221.45 45.8086 222.533 47.2812C223.633 48.737 225.098 49.4648 226.926 49.4648ZM251.352 54.1113C250.556 54.9069 249.591 55.3047 248.457 55.3047C247.323 55.3047 246.358 54.9069 245.562 54.1113C244.767 53.3158 244.369 52.3509 244.369 51.2168C244.369 50.0827 244.767 49.1178 245.562 48.3223C246.358 47.5267 247.323 47.1289 248.457 47.1289C249.591 47.1289 250.556 47.5267 251.352 48.3223C252.147 49.1178 252.545 50.0827 252.545 51.2168C252.545 52.3509 252.147 53.3158 251.352 54.1113Z" fill="black"/>
</svg>
